<svg width="48" height="48" viewBox="0 0 48 48" fill="none" xmlns="http://www.w3.org/2000/svg">
<path d="M7 40C6.2 40 5.5 39.7 4.9 39.1C4.3 38.5 4 37.8 4 37V11C4 10.2 4.3 9.5 4.9 8.9C5.5 8.3 6.2 8 7 8H41C41.8 8 42.5 8.3 43.1 8.9C43.7 9.5 44 10.2 44 11V37C44 37.8 43.7 38.5 43.1 39.1C42.5 39.7 41.8 40 41 40H7ZM24 24.6C24.1667 24.6 24.3083 24.575 24.425 24.525C24.5417 24.475 24.6667 24.4167 24.8 24.35L40.5 14.1C40.6667 14 40.7917 13.8667 40.875 13.7C40.9583 13.5333 41 13.35 41 13.15C41 12.7167 40.8083 12.375 40.425 12.125C40.0417 11.875 39.65 11.8833 39.25 12.15L24 21.9L8.8 12.15C8.4 11.8833 8 11.8667 7.6 12.1C7.2 12.3333 7 12.6667 7 13.1C7 13.3 7.05 13.4917 7.15 13.675C7.25 13.8583 7.36667 14 7.5 14.1L23.2 24.35C23.3333 24.4167 23.4583 24.475 23.575 24.525C23.6917 24.575 23.8333 24.6 24 24.6Z" fill="url(#paint0_linear_12_178)"/>
<defs>
<linearGradient id="paint0_linear_12_178" x1="24" y1="8" x2="24" y2="40" gradientUnits="userSpaceOnUse">
<stop stop-color="#4BBAEA"/>
<stop offset="1" stop-color="#3494DA"/>
</linearGradient>
</defs>
</svg>
