<svg width="40" height="46" viewBox="0 0 40 46" fill="none" xmlns="http://www.w3.org/2000/svg">
<path d="M8.95357 40H0.660714V13.2947H8.95357V40ZM4.80268 9.65181C2.15089 9.65181 0 7.45538 0 4.80359C1.89803e-08 3.52984 0.505995 2.30826 1.40667 1.40759C2.30735 0.506911 3.52893 0.000915527 4.80268 0.000915527C6.07643 0.000915527 7.29801 0.506911 8.19869 1.40759C9.09936 2.30826 9.60536 3.52984 9.60536 4.80359C9.60536 7.45538 7.45357 9.65181 4.80268 9.65181ZM39.9911 40H31.7161V27C31.7161 23.9018 31.6536 19.9286 27.4045 19.9286C23.0929 19.9286 22.4321 23.2947 22.4321 26.7768V40H14.1482V13.2947H22.1018V16.9375H22.2179C23.325 14.8393 26.0295 12.625 30.0643 12.625C38.4571 12.625 40 18.1518 40 25.3304V40H39.9911Z" fill="url(#paint0_linear_12_182)"/>
<defs>
<linearGradient id="paint0_linear_12_182" x1="20" y1="0.000915527" x2="20" y2="40" gradientUnits="userSpaceOnUse">
<stop stop-color="#4BBAEA"/>
<stop offset="1" stop-color="#3494DA"/>
</linearGradient>
</defs>
</svg>
