<svg width="19" height="21" viewBox="0 0 19 21" fill="none" xmlns="http://www.w3.org/2000/svg">
<g clip-path="url(#clip0_12_174)">
<path d="M18.375 13.7812V1.96875C18.375 0.881426 17.4932 0 16.4062 0H3.9375C1.76285 0 0 1.76285 0 3.9375V17.0625C0 19.2371 1.76285 21 3.9375 21H17.0625C17.7872 21 18.375 20.4122 18.375 19.7244C18.375 19.2437 18.104 18.8418 17.7188 18.6129V15.2759C18.1207 14.8805 18.375 14.3637 18.375 13.7812ZM5.86934 5.25H13.7443C14.1422 5.25 14.4375 5.54531 14.4375 5.90625C14.4375 6.26719 14.1422 6.5625 13.7812 6.5625H5.86934C5.54531 6.5625 5.25 6.26719 5.25 5.90625C5.25 5.54531 5.54531 5.25 5.86934 5.25ZM5.86934 7.875H13.7443C14.1422 7.875 14.4375 8.17031 14.4375 8.53125C14.4375 8.89219 14.1422 9.1875 13.7812 9.1875H5.86934C5.54531 9.1875 5.25 8.89219 5.25 8.53125C5.25 8.17031 5.54531 7.875 5.86934 7.875ZM15.75 18.375H3.9375C3.21275 18.375 2.625 17.7872 2.625 17.0625C2.625 16.3378 3.21275 15.75 3.9375 15.75H15.75V18.375Z" fill="url(#paint0_linear_12_174)"/>
</g>
<defs>
<linearGradient id="paint0_linear_12_174" x1="9.1875" y1="0" x2="9.1875" y2="21" gradientUnits="userSpaceOnUse">
<stop stop-color="#4BBAEA"/>
<stop offset="1" stop-color="#3494DA"/>
</linearGradient>
<clipPath id="clip0_12_174">
<rect width="18.375" height="21" fill="white"/>
</clipPath>
</defs>
</svg>
