<svg width="21" height="21" viewBox="0 0 21 21" fill="none" xmlns="http://www.w3.org/2000/svg">
<path d="M11.6156 19.25C11.2802 19.25 11.0359 19.1406 10.8828 18.9219C10.7297 18.7031 10.7115 18.4333 10.8281 18.1125L14.0437 9.58125C14.1312 9.34792 14.2917 9.15104 14.525 8.99062C14.7583 8.83021 14.999 8.75 15.2469 8.75C15.4948 8.75 15.7391 8.83021 15.9797 8.99062C16.2203 9.15104 16.3844 9.34792 16.4719 9.58125L19.7531 18.025C19.8844 18.3604 19.8698 18.6484 19.7094 18.8891C19.549 19.1297 19.2792 19.25 18.9 19.25C18.7396 19.25 18.5865 19.199 18.4406 19.0969C18.2948 18.9948 18.1927 18.8635 18.1344 18.7031L17.4125 16.4938H13.2125L12.3812 18.725C12.3229 18.8708 12.2208 18.9948 12.075 19.0969C11.9292 19.199 11.776 19.25 11.6156 19.25ZM13.6937 14.9625H16.8L15.2688 10.7188H15.225L13.6937 14.9625ZM6.32187 7.48125C6.54062 7.86042 6.78125 8.22865 7.04375 8.58594C7.30625 8.94323 7.59062 9.31146 7.89687 9.69062C8.55312 9.00521 9.1 8.29427 9.5375 7.55781C9.975 6.82135 10.3469 6.05208 10.6531 5.25H1.75C1.50208 5.25 1.29427 5.16615 1.12656 4.99844C0.958854 4.83073 0.875 4.62292 0.875 4.375C0.875 4.12708 0.958854 3.91927 1.12656 3.75156C1.29427 3.58385 1.50208 3.5 1.75 3.5H7V2.625C7 2.37708 7.08385 2.16927 7.25156 2.00156C7.41927 1.83385 7.62708 1.75 7.875 1.75C8.12292 1.75 8.33073 1.83385 8.49844 2.00156C8.66615 2.16927 8.75 2.37708 8.75 2.625V3.5H14C14.2479 3.5 14.4557 3.58385 14.6234 3.75156C14.7911 3.91927 14.875 4.12708 14.875 4.375C14.875 4.62292 14.7911 4.83073 14.6234 4.99844C14.4557 5.16615 14.2479 5.25 14 5.25H12.4031C12.0823 6.25625 11.6557 7.24427 11.1234 8.21406C10.5911 9.18385 9.93854 10.1063 9.16563 10.9813L11.3094 13.1469L10.6531 14.9187L7.875 12.25L4.09063 16.0344C3.93021 16.1948 3.73333 16.275 3.5 16.275C3.26667 16.275 3.06979 16.1875 2.90938 16.0125C2.73438 15.8521 2.64688 15.6552 2.64688 15.4219C2.64688 15.1885 2.73438 14.9844 2.90938 14.8094L6.75937 10.9594C6.38021 10.5073 6.02292 10.0516 5.6875 9.59219C5.35208 9.13281 5.04583 8.6625 4.76875 8.18125C4.59375 7.86042 4.57917 7.58333 4.725 7.35C4.87083 7.11667 5.13333 7 5.5125 7C5.67292 7 5.82969 7.0474 5.98281 7.14219C6.13594 7.23698 6.24896 7.35 6.32187 7.48125Z" fill="url(#paint0_linear_12_176)"/>
<defs>
<linearGradient id="paint0_linear_12_176" x1="10.3584" y1="1.75" x2="10.3584" y2="19.25" gradientUnits="userSpaceOnUse">
<stop stop-color="#4BBAEA"/>
<stop offset="1" stop-color="#3494DA"/>
</linearGradient>
</defs>
</svg>
