<svg width="49" height="30" viewBox="0 0 49 30" fill="none" xmlns="http://www.w3.org/2000/svg">
<path d="M8.88 25.92C8.88 26.752 8.944 27.36 9.072 27.744C9.2 28.096 9.44 28.336 9.792 28.464C10.176 28.592 10.784 28.656 11.616 28.656H13.248C15.744 28.656 17.904 28 19.728 26.688C21.552 25.344 22.768 23.536 23.376 21.264C23.376 21.2 23.44 21.168 23.568 21.168C23.632 21.168 23.696 21.2 23.76 21.264C23.856 21.296 23.904 21.328 23.904 21.36C23.616 24.528 23.472 27.168 23.472 29.28C23.472 29.536 23.408 29.728 23.28 29.856C23.184 29.952 23.008 30 22.752 30H0.096C0.032 30 0 29.904 0 29.712C0 29.52 0.032 29.424 0.096 29.424C1.12 29.424 1.856 29.344 2.304 29.184C2.784 29.024 3.104 28.72 3.264 28.272C3.456 27.792 3.552 27.072 3.552 26.112V3.88799C3.552 2.92799 3.456 2.22399 3.264 1.77599C3.104 1.32799 2.784 1.02399 2.304 0.863991C1.824 0.671991 1.088 0.575996 0.096 0.575996C0.032 0.575996 0 0.479994 0 0.287994C0 0.0959949 0.032 0 0.096 0L2.544 0.0479965C4.016 0.111996 5.232 0.143997 6.192 0.143997C7.152 0.143997 8.368 0.111996 9.84 0.0479965L12.288 0C12.384 0 12.432 0.0959949 12.432 0.287994C12.432 0.479994 12.384 0.575996 12.288 0.575996C11.296 0.575996 10.56 0.671991 10.08 0.863991C9.6 1.02399 9.28 1.344 9.12 1.824C8.96 2.272 8.88 2.976 8.88 3.936V25.92Z" fill="#277ECE"/>
<path d="M48.7643 6.816C48.7643 6.88 48.6683 6.928 48.4763 6.96C48.3163 6.992 48.2202 6.96 48.1882 6.864C47.6762 5.008 46.8123 3.632 45.5963 2.736C44.3803 1.84 42.7802 1.392 40.7962 1.392H39.3562C38.3962 1.392 37.6922 1.6 37.2442 2.016C36.7962 2.432 36.5723 3.072 36.5723 3.936V14.304H40.0282C41.8842 14.304 43.2922 13.984 44.2522 13.344C45.2442 12.672 45.7402 11.76 45.7402 10.608C45.7402 10.544 45.8362 10.512 46.0282 10.512C46.2202 10.512 46.3163 10.544 46.3163 10.608L46.2682 14.976C46.2682 16 46.2843 16.768 46.3163 17.28L46.3643 19.824C46.3643 19.92 46.2682 19.968 46.0762 19.968C45.8842 19.968 45.7883 19.92 45.7883 19.824C45.7883 18.544 45.2762 17.536 44.2522 16.8C43.2602 16.032 41.8363 15.648 39.9803 15.648H36.5723V25.92C36.5723 26.912 36.7003 27.648 36.9563 28.128C37.2123 28.608 37.6923 28.944 38.3963 29.136C39.1003 29.328 40.2043 29.424 41.7083 29.424C41.7723 29.424 41.8042 29.52 41.8042 29.712C41.8042 29.904 41.7723 30 41.7083 30C40.3963 30 39.3722 29.984 38.6362 29.952L33.7402 29.904L30.1403 29.952C29.5003 29.984 28.6203 30 27.5003 30C27.4043 30 27.3562 29.904 27.3562 29.712C27.3562 29.52 27.4043 29.424 27.5003 29.424C28.6203 29.424 29.4362 29.344 29.9482 29.184C30.4602 29.024 30.7963 28.72 30.9563 28.272C31.1483 27.792 31.2442 27.072 31.2442 26.112V3.888C31.2442 2.928 31.1642 2.224 31.0042 1.776C30.8442 1.328 30.5243 1.024 30.0443 0.863997C29.5643 0.671998 28.8283 0.575998 27.8363 0.575998C27.7403 0.575998 27.6923 0.479999 27.6923 0.287999C27.6923 0.0959997 27.7403 0 27.8363 0H48.1882C48.5082 0 48.6682 0.143999 48.6682 0.431997L48.7643 6.816Z" fill="#277ECE"/>
</svg>
