<svg width="59" height="31" viewBox="0 0 59 31" fill="none" xmlns="http://www.w3.org/2000/svg">
<path d="M8.88 25.9201C8.88 26.7521 8.944 27.3601 9.072 27.7441C9.2 28.0961 9.44 28.3361 9.792 28.4641C10.176 28.5921 10.784 28.6561 11.616 28.6561H13.248C15.744 28.6561 17.904 28.0001 19.728 26.6881C21.552 25.3441 22.768 23.5361 23.376 21.2641C23.376 21.2001 23.44 21.1681 23.568 21.1681C23.632 21.1681 23.696 21.2001 23.76 21.2641C23.856 21.2961 23.904 21.3281 23.904 21.3601C23.616 24.5281 23.472 27.1681 23.472 29.2801C23.472 29.5361 23.408 29.7281 23.28 29.8561C23.184 29.9521 23.008 30.0001 22.752 30.0001H0.096C0.0319999 30.0001 0 29.9041 0 29.7121C0 29.5201 0.0319999 29.4241 0.096 29.4241C1.12 29.4241 1.856 29.3441 2.304 29.1841C2.784 29.0241 3.104 28.7201 3.264 28.2721C3.456 27.7921 3.552 27.0721 3.552 26.1121V3.88812C3.552 2.92812 3.456 2.22412 3.264 1.77612C3.104 1.32812 2.784 1.02412 2.304 0.86412C1.824 0.67212 1.088 0.57612 0.096 0.57612C0.0319999 0.57612 0 0.480121 0 0.288121C0 0.0961218 0.0319999 0.00012207 0.096 0.00012207L2.544 0.0481215C4.016 0.112121 5.232 0.14412 6.192 0.14412C7.152 0.14412 8.368 0.112121 9.84 0.0481215L12.288 0.00012207C12.384 0.00012207 12.432 0.0961218 12.432 0.288121C12.432 0.480121 12.384 0.57612 12.288 0.57612C11.296 0.57612 10.56 0.67212 10.08 0.86412C9.6 1.02412 9.28 1.34412 9.12 1.82412C8.96 2.27212 8.88 2.97612 8.88 3.93612V25.9201Z" fill="#277ECE"/>
<path d="M58.516 0.0479994C58.58 0.0479994 58.612 0.143999 58.612 0.335999C58.612 0.527998 58.58 0.623998 58.516 0.623998C57.236 0.623998 56.228 1.136 55.492 2.16C54.756 3.152 54.388 4.496 54.388 6.192V30.768C54.388 30.864 54.308 30.928 54.148 30.96C54.02 30.992 53.924 30.976 53.86 30.912L31.348 5.28V23.952C31.348 25.648 31.7 26.992 32.404 27.984C33.108 28.976 34.084 29.472 35.332 29.472C35.396 29.472 35.428 29.568 35.428 29.76C35.428 29.952 35.396 30.048 35.332 30.048C34.436 30.048 33.748 30.032 33.268 30L30.676 29.952L27.7 30C27.156 30.032 26.372 30.048 25.348 30.048C25.252 30.048 25.204 29.952 25.204 29.76C25.204 29.568 25.252 29.472 25.348 29.472C26.756 29.472 27.86 28.976 28.66 27.984C29.492 26.992 29.908 25.648 29.908 23.952V3.648C28.852 2.496 27.94 1.712 27.172 1.296C26.436 0.847998 25.668 0.623998 24.868 0.623998C24.804 0.623998 24.772 0.527998 24.772 0.335999C24.772 0.143999 24.804 0.0479994 24.868 0.0479994L26.884 0.0959988C27.3 0.127998 27.908 0.143998 28.708 0.143998L32.356 0.0959988C32.804 0.0639992 33.348 0.0479994 33.988 0.0479994C34.244 0.0479994 34.436 0.111999 34.564 0.239997C34.692 0.367997 34.916 0.639997 35.236 1.056C35.78 1.792 36.164 2.288 36.388 2.544L52.996 21.696V6.192C52.996 4.464 52.644 3.104 51.94 2.112C51.236 1.12 50.26 0.623998 49.012 0.623998C48.948 0.623998 48.916 0.527998 48.916 0.335999C48.916 0.143999 48.948 0.0479994 49.012 0.0479994L51.076 0.0959988C52.1 0.159998 52.964 0.191998 53.668 0.191998C54.308 0.191998 55.204 0.159998 56.356 0.0959988L58.516 0.0479994Z" fill="#277ECE"/>
</svg>
