<svg width="280" height="31" viewBox="0 0 280 31" fill="none" xmlns="http://www.w3.org/2000/svg">
<path d="M8.88 25.92C8.88 26.752 8.944 27.36 9.072 27.744C9.2 28.096 9.44 28.336 9.792 28.464C10.176 28.592 10.784 28.656 11.616 28.656H13.248C15.744 28.656 17.904 28 19.728 26.688C21.552 25.344 22.768 23.536 23.376 21.264C23.376 21.2 23.44 21.168 23.568 21.168C23.632 21.168 23.696 21.2 23.76 21.264C23.856 21.296 23.904 21.328 23.904 21.36C23.616 24.528 23.472 27.168 23.472 29.28C23.472 29.536 23.408 29.728 23.28 29.856C23.184 29.952 23.008 30 22.752 30H0.096C0.0319999 30 0 29.904 0 29.712C0 29.52 0.0319999 29.424 0.096 29.424C1.12 29.424 1.856 29.344 2.304 29.184C2.784 29.024 3.104 28.72 3.264 28.272C3.456 27.792 3.552 27.072 3.552 26.112V3.888C3.552 2.928 3.456 2.224 3.264 1.776C3.104 1.328 2.784 1.024 2.304 0.863997C1.824 0.671998 1.088 0.575998 0.096 0.575998C0.0319999 0.575998 0 0.479999 0 0.287999C0 0.0959997 0.0319999 0 0.096 0L2.544 0.0479994C4.016 0.111999 5.232 0.143998 6.192 0.143998C7.152 0.143998 8.368 0.111999 9.84 0.0479994L12.288 0C12.384 0 12.432 0.0959997 12.432 0.287999C12.432 0.479999 12.384 0.575998 12.288 0.575998C11.296 0.575998 10.56 0.671998 10.08 0.863997C9.6 1.024 9.28 1.344 9.12 1.824C8.96 2.272 8.88 2.976 8.88 3.936V25.92Z" fill="#277ECE"/>
<path d="M48.7642 26.88C48.8602 26.88 48.9403 26.96 49.0042 27.12C49.1003 27.28 49.1003 27.376 49.0042 27.408L42.3802 30.624C42.3162 30.656 42.2363 30.672 42.1403 30.672C41.8203 30.672 41.5322 30.336 41.2762 29.664C41.0522 28.96 40.9243 28.016 40.8923 26.832C38.7803 29.328 36.4922 30.576 34.0282 30.576C32.2682 30.576 30.8763 30.032 29.8523 28.944C28.8603 27.824 28.3643 26.368 28.3643 24.576V17.52C28.3643 15.44 27.8682 14.4 26.8762 14.4C26.5242 14.4 26.1243 14.512 25.6763 14.736H25.6283C25.5003 14.736 25.4042 14.656 25.3403 14.496C25.2763 14.304 25.2923 14.192 25.3883 14.16L31.8202 11.088L32.0602 11.04C32.2202 11.04 32.3802 11.12 32.5402 11.28C32.7322 11.408 32.8282 11.536 32.8282 11.664V22.272C32.8282 25.728 34.1562 27.456 36.8122 27.456C37.5162 27.456 38.2202 27.312 38.9242 27.024C39.6602 26.704 40.3162 26.272 40.8923 25.728V17.52C40.8923 15.44 40.3963 14.4 39.4043 14.4C39.0523 14.4 38.6362 14.512 38.1562 14.736H38.1082C38.0122 14.736 37.9322 14.656 37.8682 14.496C37.8042 14.304 37.8202 14.192 37.9162 14.16L44.3482 11.088C44.4122 11.056 44.4922 11.04 44.5882 11.04C44.7482 11.04 44.9082 11.12 45.0682 11.28C45.2602 11.408 45.3563 11.536 45.3563 11.664V24.432C45.3563 25.52 45.4522 26.288 45.6442 26.736C45.8682 27.184 46.2202 27.408 46.7002 27.408C47.1482 27.408 47.8042 27.232 48.6682 26.88H48.7642Z" fill="black"/>
<path d="M60.2786 30.576C58.1666 30.576 56.3746 30.128 54.9026 29.232C53.4626 28.304 52.3746 27.12 51.6386 25.68C50.9346 24.208 50.5826 22.672 50.5826 21.072C50.5826 19.056 51.1426 17.296 52.2626 15.792C53.3826 14.256 54.8066 13.088 56.5346 12.288C58.2946 11.456 60.0866 11.04 61.9106 11.04C63.4466 11.04 64.8226 11.36 66.0386 12C67.2866 12.64 67.9106 13.52 67.9106 14.64C67.9106 15.248 67.6706 15.776 67.1906 16.224C66.7426 16.64 66.1026 16.848 65.2706 16.848C64.5026 16.848 63.8946 16.656 63.4466 16.272C62.9986 15.856 62.6306 15.232 62.3426 14.4C62.0546 13.504 61.7666 12.896 61.4786 12.576C61.2226 12.224 60.7426 12.048 60.0386 12.048C58.6626 12.048 57.5586 12.736 56.7266 14.112C55.9266 15.456 55.5266 17.248 55.5266 19.488C55.5266 22.144 56.1186 24.272 57.3026 25.872C58.4866 27.44 60.3746 28.224 62.9666 28.224C63.8306 28.224 64.5666 28.128 65.1746 27.936C65.8146 27.744 66.6146 27.424 67.5746 26.976H67.6226C67.7186 26.976 67.7986 27.024 67.8626 27.12C67.9586 27.216 67.9746 27.296 67.9106 27.36C66.7266 28.448 65.5426 29.264 64.3586 29.808C63.1746 30.32 61.8146 30.576 60.2786 30.576Z" fill="black"/>
<path d="M89.4555 27.408C89.5835 27.408 89.6635 27.488 89.6955 27.648C89.7595 27.776 89.7275 27.872 89.5995 27.936L84.6555 30.288C84.5275 30.352 84.3675 30.384 84.1755 30.384C83.6955 30.384 83.2155 30.144 82.7355 29.664C82.2875 29.184 81.9675 28.528 81.7755 27.696L79.5675 28.896C78.7355 29.312 77.8715 29.664 76.9755 29.952C76.0795 30.208 75.2795 30.336 74.5755 30.336C73.5515 30.336 72.7355 30.08 72.1275 29.568C71.5515 29.024 71.2635 28.256 71.2635 27.264C71.2635 26.528 71.4395 25.936 71.7915 25.488C72.1755 25.04 72.7035 24.672 73.3755 24.384C74.0795 24.064 75.1835 23.648 76.6875 23.136L81.5835 21.552V17.76C81.5835 15.84 81.3915 14.432 81.0075 13.536C80.6235 12.608 79.9995 12.144 79.1355 12.144C78.3675 12.144 77.7595 12.432 77.3115 13.008C76.8635 13.584 76.5915 14.528 76.4955 15.84C76.3035 17.632 75.3595 18.528 73.6635 18.528C72.1595 18.528 71.4075 17.872 71.4075 16.56C71.4075 15.696 71.9515 14.832 73.0395 13.968C74.1275 13.104 75.4395 12.4 76.9755 11.856C78.5115 11.312 79.8555 11.04 81.0075 11.04C82.5115 11.04 83.7275 11.488 84.6555 12.384C85.6155 13.28 86.0955 14.592 86.0955 16.32V24.816C86.0955 25.744 86.2555 26.464 86.5755 26.976C86.9275 27.488 87.4075 27.744 88.0155 27.744C88.4635 27.744 88.9275 27.632 89.4075 27.408H89.4555ZM81.6315 26.928C81.5995 26.704 81.5835 26.368 81.5835 25.92V22.368L78.9435 23.328C78.0795 23.648 77.4555 24 77.0715 24.384C76.7195 24.768 76.5435 25.232 76.5435 25.776C76.5435 26.448 76.7355 26.976 77.1195 27.36C77.5035 27.744 77.9835 27.936 78.5595 27.936C79.2635 27.936 80.0795 27.712 81.0075 27.264L81.6315 26.928Z" fill="black"/>
<path d="M95.2106 13.776C95.2106 14.704 95.5306 15.504 96.1706 16.176C96.8426 16.848 97.8026 17.552 99.0506 18.288C100.267 18.992 101.163 19.552 101.739 19.968C102.347 20.352 102.891 20.912 103.371 21.648C103.851 22.352 104.091 23.216 104.091 24.24C104.091 25.328 103.819 26.352 103.275 27.312C102.731 28.272 101.915 29.056 100.827 29.664C99.7386 30.24 98.4426 30.528 96.9386 30.528C95.1786 30.528 93.5146 30.096 91.9466 29.232C91.7546 29.04 91.6586 28.848 91.6586 28.656L91.5626 23.904C91.5626 23.808 91.6426 23.76 91.8026 23.76C91.9946 23.728 92.1066 23.744 92.1386 23.808C92.6506 25.408 93.4986 26.768 94.6826 27.888C95.8666 29.008 97.0666 29.568 98.2826 29.568C98.9546 29.568 99.4826 29.36 99.8666 28.944C100.283 28.528 100.491 27.92 100.491 27.12C100.491 25.936 100.155 25.008 99.4826 24.336C98.8106 23.632 97.8186 22.912 96.5066 22.176C95.3866 21.568 94.5386 21.072 93.9626 20.688C93.3866 20.304 92.8746 19.76 92.4266 19.056C91.9786 18.352 91.7546 17.488 91.7546 16.464C91.7546 14.576 92.4266 13.2 93.7706 12.336C95.1146 11.44 96.7626 10.992 98.7146 10.992C99.4506 10.992 100.107 11.04 100.683 11.136C101.291 11.232 101.963 11.424 102.699 11.712C102.987 11.808 103.131 11.984 103.131 12.24C103.131 13.04 103.115 13.664 103.083 14.112L103.035 16.512C103.035 16.608 102.939 16.656 102.747 16.656C102.555 16.656 102.459 16.608 102.459 16.512C102.459 15.904 102.203 15.248 101.691 14.544C101.179 13.808 100.507 13.184 99.6746 12.672C98.8746 12.16 98.0426 11.904 97.1786 11.904C95.8666 11.904 95.2106 12.528 95.2106 13.776Z" fill="black"/>
<path d="M151.673 0C151.737 0 151.769 0.0959997 151.769 0.287999C151.769 0.479999 151.737 0.575998 151.673 0.575998C150.393 0.575998 149.385 1.088 148.649 2.112C147.913 3.104 147.545 4.448 147.545 6.144V30.72C147.545 30.816 147.465 30.88 147.305 30.912C147.177 30.944 147.081 30.928 147.017 30.864L124.505 5.232V23.904C124.505 25.6 124.857 26.944 125.561 27.936C126.265 28.928 127.241 29.424 128.489 29.424C128.553 29.424 128.585 29.52 128.585 29.712C128.585 29.904 128.553 30 128.489 30C127.593 30 126.904 29.984 126.424 29.952L123.832 29.904L120.856 29.952C120.312 29.984 119.529 30 118.505 30C118.409 30 118.36 29.904 118.36 29.712C118.36 29.52 118.409 29.424 118.505 29.424C119.913 29.424 121.016 28.928 121.816 27.936C122.648 26.944 123.064 25.6 123.064 23.904V3.6C122.008 2.448 121.096 1.664 120.328 1.248C119.592 0.799998 118.824 0.575998 118.024 0.575998C117.96 0.575998 117.928 0.479999 117.928 0.287999C117.928 0.0959997 117.96 0 118.024 0L120.04 0.0479994C120.456 0.079999 121.065 0.0959988 121.865 0.0959988L125.512 0.0479994C125.96 0.0159998 126.504 0 127.144 0C127.4 0 127.592 0.0639992 127.72 0.191998C127.848 0.319998 128.073 0.591998 128.393 1.008C128.937 1.744 129.321 2.24 129.545 2.496L146.153 21.648V6.144C146.153 4.416 145.801 3.056 145.097 2.064C144.393 1.072 143.417 0.575998 142.169 0.575998C142.105 0.575998 142.073 0.479999 142.073 0.287999C142.073 0.0959997 142.105 0 142.169 0L144.233 0.0479994C145.257 0.111999 146.121 0.143998 146.825 0.143998C147.465 0.143998 148.361 0.111999 149.513 0.0479994L151.673 0Z" fill="#277ECE"/>
<path d="M172.377 27.408C172.505 27.408 172.585 27.488 172.617 27.648C172.681 27.776 172.649 27.872 172.521 27.936L167.577 30.288C167.449 30.352 167.289 30.384 167.097 30.384C166.617 30.384 166.137 30.144 165.657 29.664C165.209 29.184 164.889 28.528 164.697 27.696L162.489 28.896C161.657 29.312 160.793 29.664 159.897 29.952C159.001 30.208 158.201 30.336 157.497 30.336C156.473 30.336 155.657 30.08 155.049 29.568C154.473 29.024 154.185 28.256 154.185 27.264C154.185 26.528 154.361 25.936 154.713 25.488C155.097 25.04 155.625 24.672 156.297 24.384C157.001 24.064 158.105 23.648 159.609 23.136L164.505 21.552V17.76C164.505 15.84 164.313 14.432 163.929 13.536C163.545 12.608 162.921 12.144 162.057 12.144C161.289 12.144 160.681 12.432 160.233 13.008C159.785 13.584 159.513 14.528 159.417 15.84C159.225 17.632 158.281 18.528 156.585 18.528C155.081 18.528 154.329 17.872 154.329 16.56C154.329 15.696 154.873 14.832 155.961 13.968C157.049 13.104 158.361 12.4 159.897 11.856C161.433 11.312 162.777 11.04 163.929 11.04C165.433 11.04 166.649 11.488 167.577 12.384C168.537 13.28 169.017 14.592 169.017 16.32V24.816C169.017 25.744 169.177 26.464 169.497 26.976C169.849 27.488 170.329 27.744 170.937 27.744C171.385 27.744 171.849 27.632 172.329 27.408H172.377ZM164.553 26.928C164.521 26.704 164.505 26.368 164.505 25.92V22.368L161.865 23.328C161.001 23.648 160.377 24 159.993 24.384C159.641 24.768 159.465 25.232 159.465 25.776C159.465 26.448 159.657 26.976 160.041 27.36C160.425 27.744 160.905 27.936 161.481 27.936C162.185 27.936 163.001 27.712 163.929 27.264L164.553 26.928Z" fill="black"/>
<path d="M193.698 11.472C193.762 11.472 193.794 11.568 193.794 11.76C193.794 11.952 193.762 12.048 193.698 12.048C192.77 12.048 191.938 12.4 191.202 13.104C190.498 13.808 189.826 14.896 189.186 16.368L183.282 30C183.25 30.16 183.074 30.24 182.754 30.24C182.498 30.24 182.322 30.16 182.226 30L174.882 15.456C174.21 14.048 173.618 13.136 173.106 12.72C172.594 12.272 171.97 12.048 171.234 12.048C171.138 12.048 171.09 11.952 171.09 11.76C171.09 11.568 171.138 11.472 171.234 11.472C171.81 11.472 172.29 11.488 172.674 11.52L175.89 11.568L179.586 11.52C180.13 11.488 180.882 11.472 181.842 11.472C181.938 11.472 181.986 11.568 181.986 11.76C181.986 11.952 181.938 12.048 181.842 12.048C179.986 12.048 179.058 12.416 179.058 13.152C179.058 13.344 179.138 13.6 179.298 13.92L184.674 24L187.842 16.32C188.098 15.648 188.226 15.072 188.226 14.592C188.226 13.792 187.954 13.168 187.41 12.72C186.866 12.272 186.114 12.048 185.154 12.048C185.09 12.048 185.058 11.952 185.058 11.76C185.058 11.568 185.09 11.472 185.154 11.472C186.018 11.472 186.674 11.488 187.122 11.52L190.002 11.568L191.922 11.52C192.306 11.488 192.898 11.472 193.698 11.472Z" fill="black"/>
<path d="M212.596 27.408C212.724 27.408 212.804 27.488 212.836 27.648C212.9 27.776 212.868 27.872 212.74 27.936L207.796 30.288C207.668 30.352 207.508 30.384 207.316 30.384C206.836 30.384 206.356 30.144 205.876 29.664C205.428 29.184 205.108 28.528 204.916 27.696L202.708 28.896C201.876 29.312 201.012 29.664 200.116 29.952C199.22 30.208 198.42 30.336 197.716 30.336C196.692 30.336 195.876 30.08 195.268 29.568C194.692 29.024 194.404 28.256 194.404 27.264C194.404 26.528 194.58 25.936 194.932 25.488C195.316 25.04 195.844 24.672 196.516 24.384C197.22 24.064 198.324 23.648 199.828 23.136L204.724 21.552V17.76C204.724 15.84 204.532 14.432 204.148 13.536C203.764 12.608 203.14 12.144 202.276 12.144C201.508 12.144 200.9 12.432 200.452 13.008C200.004 13.584 199.732 14.528 199.636 15.84C199.444 17.632 198.5 18.528 196.804 18.528C195.3 18.528 194.548 17.872 194.548 16.56C194.548 15.696 195.092 14.832 196.18 13.968C197.268 13.104 198.58 12.4 200.116 11.856C201.652 11.312 202.996 11.04 204.148 11.04C205.652 11.04 206.868 11.488 207.796 12.384C208.756 13.28 209.236 14.592 209.236 16.32V24.816C209.236 25.744 209.396 26.464 209.716 26.976C210.068 27.488 210.548 27.744 211.156 27.744C211.604 27.744 212.068 27.632 212.548 27.408H212.596ZM204.772 26.928C204.74 26.704 204.724 26.368 204.724 25.92V22.368L202.084 23.328C201.22 23.648 200.596 24 200.212 24.384C199.86 24.768 199.684 25.232 199.684 25.776C199.684 26.448 199.876 26.976 200.26 27.36C200.644 27.744 201.124 27.936 201.7 27.936C202.404 27.936 203.22 27.712 204.148 27.264L204.772 26.928Z" fill="black"/>
<path d="M227.039 10.992C227.775 10.992 228.479 11.264 229.151 11.808C229.855 12.32 230.207 12.944 230.207 13.68C230.207 14.352 229.999 14.912 229.583 15.36C229.167 15.776 228.623 15.984 227.951 15.984C227.471 15.984 227.071 15.888 226.751 15.696C226.463 15.504 226.159 15.216 225.839 14.832C225.551 14.512 225.295 14.288 225.071 14.16C224.879 14 224.639 13.92 224.351 13.92C224.031 13.92 223.679 14.048 223.295 14.304C222.943 14.528 222.383 15.024 221.615 15.792V26.112C221.615 27.392 221.919 28.272 222.527 28.752C223.135 29.2 224.255 29.424 225.887 29.424C226.015 29.424 226.079 29.52 226.079 29.712C226.079 29.904 226.015 30 225.887 30C224.767 30 223.887 29.984 223.247 29.952L219.359 29.904L216.527 29.952C216.047 29.984 215.391 30 214.559 30C214.463 30 214.415 29.904 214.415 29.712C214.415 29.52 214.463 29.424 214.559 29.424C215.551 29.424 216.223 29.2 216.575 28.752C216.927 28.272 217.103 27.392 217.103 26.112V17.088C217.103 16.096 216.975 15.376 216.719 14.928C216.495 14.448 216.127 14.208 215.615 14.208C215.071 14.208 214.303 14.432 213.311 14.88H213.215C213.119 14.88 213.039 14.8 212.975 14.64C212.943 14.48 212.959 14.384 213.023 14.352L219.695 11.088C219.887 11.024 219.999 10.992 220.031 10.992C220.383 10.992 220.703 11.328 220.991 12C221.311 12.64 221.503 13.52 221.567 14.64C222.879 13.296 223.951 12.352 224.783 11.808C225.647 11.264 226.399 10.992 227.039 10.992Z" fill="black"/>
<path d="M245.227 10.992C245.963 10.992 246.667 11.264 247.339 11.808C248.043 12.32 248.395 12.944 248.395 13.68C248.395 14.352 248.187 14.912 247.771 15.36C247.355 15.776 246.811 15.984 246.139 15.984C245.659 15.984 245.259 15.888 244.939 15.696C244.651 15.504 244.347 15.216 244.027 14.832C243.739 14.512 243.483 14.288 243.259 14.16C243.067 14 242.827 13.92 242.539 13.92C242.219 13.92 241.867 14.048 241.483 14.304C241.131 14.528 240.571 15.024 239.803 15.792V26.112C239.803 27.392 240.107 28.272 240.715 28.752C241.323 29.2 242.443 29.424 244.075 29.424C244.203 29.424 244.267 29.52 244.267 29.712C244.267 29.904 244.203 30 244.075 30C242.955 30 242.075 29.984 241.435 29.952L237.547 29.904L234.715 29.952C234.235 29.984 233.579 30 232.747 30C232.651 30 232.603 29.904 232.603 29.712C232.603 29.52 232.651 29.424 232.747 29.424C233.739 29.424 234.411 29.2 234.763 28.752C235.115 28.272 235.291 27.392 235.291 26.112V17.088C235.291 16.096 235.163 15.376 234.907 14.928C234.683 14.448 234.315 14.208 233.803 14.208C233.259 14.208 232.491 14.432 231.499 14.88H231.403C231.307 14.88 231.227 14.8 231.163 14.64C231.131 14.48 231.147 14.384 231.211 14.352L237.883 11.088C238.075 11.024 238.187 10.992 238.219 10.992C238.571 10.992 238.891 11.328 239.179 12C239.499 12.64 239.691 13.52 239.755 14.64C241.067 13.296 242.139 12.352 242.971 11.808C243.835 11.264 244.587 10.992 245.227 10.992Z" fill="black"/>
<path d="M259.876 30.624C257.892 30.624 256.148 30.176 254.644 29.28C253.172 28.352 252.036 27.12 251.236 25.584C250.436 24.016 250.036 22.32 250.036 20.496C250.036 18.416 250.564 16.656 251.62 15.216C252.676 13.744 254.02 12.656 255.652 11.952C257.284 11.216 258.964 10.848 260.692 10.848C262.676 10.848 264.404 11.312 265.876 12.24C267.348 13.168 268.468 14.4 269.236 15.936C270.036 17.44 270.436 19.056 270.436 20.784C270.436 22.704 269.956 24.416 268.996 25.92C268.036 27.392 266.74 28.544 265.108 29.376C263.508 30.208 261.764 30.624 259.876 30.624ZM261.316 29.616C262.564 29.616 263.508 29.008 264.148 27.792C264.82 26.544 265.156 24.768 265.156 22.464C265.156 20.224 264.868 18.304 264.292 16.704C263.716 15.104 262.964 13.904 262.036 13.104C261.108 12.272 260.116 11.856 259.06 11.856C256.5 11.856 255.22 14.144 255.22 18.72C255.22 20.864 255.492 22.768 256.036 24.432C256.58 26.064 257.316 27.344 258.244 28.272C259.172 29.168 260.196 29.616 261.316 29.616Z" fill="black"/>
<path d="M277.024 30.528C276.128 30.528 275.408 30.272 274.864 29.76C274.352 29.216 274.096 28.496 274.096 27.6C274.096 26.768 274.352 26.096 274.864 25.584C275.408 25.072 276.128 24.816 277.024 24.816C277.92 24.816 278.608 25.072 279.088 25.584C279.6 26.064 279.856 26.736 279.856 27.6C279.856 28.528 279.6 29.248 279.088 29.76C278.608 30.272 277.92 30.528 277.024 30.528Z" fill="#277ECE"/>
</svg>
