<svg width="257" height="31" viewBox="0 0 257 31" fill="none" xmlns="http://www.w3.org/2000/svg">
<path d="M8.88 25.92C8.88 26.752 8.944 27.36 9.072 27.744C9.2 28.096 9.44 28.336 9.792 28.464C10.176 28.592 10.784 28.656 11.616 28.656H13.248C15.744 28.656 17.904 28 19.728 26.688C21.552 25.344 22.768 23.536 23.376 21.264C23.376 21.2 23.44 21.168 23.568 21.168C23.632 21.168 23.696 21.2 23.76 21.264C23.856 21.296 23.904 21.328 23.904 21.36C23.616 24.528 23.472 27.168 23.472 29.28C23.472 29.536 23.408 29.728 23.28 29.856C23.184 29.952 23.008 30 22.752 30H0.096C0.032 30 0 29.904 0 29.712C0 29.52 0.032 29.424 0.096 29.424C1.12 29.424 1.856 29.344 2.304 29.184C2.784 29.024 3.104 28.72 3.264 28.272C3.456 27.792 3.552 27.072 3.552 26.112V3.888C3.552 2.928 3.456 2.224 3.264 1.776C3.104 1.328 2.784 1.024 2.304 0.863997C1.824 0.671998 1.088 0.575998 0.096 0.575998C0.032 0.575998 0 0.479999 0 0.287999C0 0.0959997 0.032 0 0.096 0L2.544 0.0479994C4.016 0.111999 5.232 0.143998 6.192 0.143998C7.152 0.143998 8.368 0.111999 9.84 0.0479994L12.288 0C12.384 0 12.432 0.0959997 12.432 0.287999C12.432 0.479999 12.384 0.575998 12.288 0.575998C11.296 0.575998 10.56 0.671998 10.08 0.863997C9.6 1.024 9.28 1.344 9.12 1.824C8.96 2.272 8.88 2.976 8.88 3.936V25.92Z" fill="#277ECE"/>
<path d="M48.7643 26.88C48.8603 26.88 48.9403 26.96 49.0042 27.12C49.1003 27.28 49.1003 27.376 49.0042 27.408L42.3803 30.624C42.3163 30.656 42.2363 30.672 42.1403 30.672C41.8203 30.672 41.5323 30.336 41.2763 29.664C41.0523 28.96 40.9243 28.016 40.8923 26.832C38.7803 29.328 36.4923 30.576 34.0283 30.576C32.2683 30.576 30.8763 30.032 29.8523 28.944C28.8603 27.824 28.3643 26.368 28.3643 24.576V17.52C28.3643 15.44 27.8682 14.4 26.8762 14.4C26.5242 14.4 26.1243 14.512 25.6763 14.736H25.6283C25.5003 14.736 25.4042 14.656 25.3403 14.496C25.2763 14.304 25.2923 14.192 25.3883 14.16L31.8203 11.088L32.0602 11.04C32.2202 11.04 32.3802 11.12 32.5402 11.28C32.7322 11.408 32.8283 11.536 32.8283 11.664V22.272C32.8283 25.728 34.1562 27.456 36.8122 27.456C37.5162 27.456 38.2203 27.312 38.9243 27.024C39.6603 26.704 40.3162 26.272 40.8923 25.728V17.52C40.8923 15.44 40.3963 14.4 39.4043 14.4C39.0523 14.4 38.6362 14.512 38.1562 14.736H38.1082C38.0122 14.736 37.9323 14.656 37.8683 14.496C37.8043 14.304 37.8202 14.192 37.9162 14.16L44.3483 11.088C44.4123 11.056 44.4923 11.04 44.5883 11.04C44.7483 11.04 44.9083 11.12 45.0683 11.28C45.2603 11.408 45.3563 11.536 45.3563 11.664V24.432C45.3563 25.52 45.4522 26.288 45.6442 26.736C45.8682 27.184 46.2203 27.408 46.7003 27.408C47.1483 27.408 47.8043 27.232 48.6683 26.88H48.7643Z" fill="#121212"/>
<path d="M60.2786 30.576C58.1666 30.576 56.3746 30.128 54.9026 29.232C53.4626 28.304 52.3746 27.12 51.6386 25.68C50.9346 24.208 50.5826 22.672 50.5826 21.072C50.5826 19.056 51.1426 17.296 52.2626 15.792C53.3826 14.256 54.8066 13.088 56.5346 12.288C58.2946 11.456 60.0866 11.04 61.9106 11.04C63.4466 11.04 64.8226 11.36 66.0386 12C67.2866 12.64 67.9106 13.52 67.9106 14.64C67.9106 15.248 67.6706 15.776 67.1906 16.224C66.7426 16.64 66.1026 16.848 65.2706 16.848C64.5026 16.848 63.8946 16.656 63.4466 16.272C62.9986 15.856 62.6306 15.232 62.3426 14.4C62.0546 13.504 61.7666 12.896 61.4786 12.576C61.2226 12.224 60.7426 12.048 60.0386 12.048C58.6626 12.048 57.5586 12.736 56.7266 14.112C55.9266 15.456 55.5266 17.248 55.5266 19.488C55.5266 22.144 56.1186 24.272 57.3026 25.872C58.4866 27.44 60.3746 28.224 62.9666 28.224C63.8306 28.224 64.5666 28.128 65.1746 27.936C65.8146 27.744 66.6146 27.424 67.5746 26.976H67.6226C67.7186 26.976 67.7986 27.024 67.8626 27.12C67.9586 27.216 67.9746 27.296 67.9106 27.36C66.7266 28.448 65.5426 29.264 64.3586 29.808C63.1746 30.32 61.8146 30.576 60.2786 30.576Z" fill="#121212"/>
<path d="M89.4555 27.408C89.5835 27.408 89.6635 27.488 89.6955 27.648C89.7595 27.776 89.7275 27.872 89.5995 27.936L84.6555 30.288C84.5275 30.352 84.3675 30.384 84.1755 30.384C83.6635 30.384 83.1675 30.112 82.6875 29.568C82.2395 29.024 81.9195 28.288 81.7275 27.36L79.6635 28.8C78.9275 29.344 78.2395 29.744 77.5995 30C76.9595 30.224 76.2395 30.336 75.4395 30.336C74.0635 30.336 73.0235 30.032 72.3195 29.424C71.6155 28.816 71.2635 27.968 71.2635 26.88C71.2635 26.016 71.4715 25.328 71.8875 24.816C72.3035 24.272 72.8155 23.856 73.4235 23.568C74.0635 23.248 74.9435 22.896 76.0635 22.512L77.2635 22.08L81.5835 20.496V17.76C81.5835 15.712 81.4075 14.224 81.0555 13.296C80.7355 12.368 80.1755 11.904 79.3755 11.904C77.6795 11.904 76.7195 13.216 76.4955 15.84C76.3995 16.8 76.1115 17.488 75.6315 17.904C75.1835 18.32 74.5435 18.528 73.7115 18.528C72.9115 18.528 72.3195 18.368 71.9355 18.048C71.5835 17.696 71.4075 17.248 71.4075 16.704C71.4075 15.744 71.9675 14.832 73.0875 13.968C74.2075 13.072 75.5515 12.352 77.1195 11.808C78.7195 11.264 80.1275 10.992 81.3435 10.992C82.7515 10.992 83.8875 11.44 84.7515 12.336C85.6475 13.2 86.0955 14.528 86.0955 16.32V24.816C86.0955 25.744 86.2555 26.464 86.5755 26.976C86.9275 27.488 87.4075 27.744 88.0155 27.744C88.4635 27.744 88.9275 27.632 89.4075 27.408H89.4555ZM81.6315 26.544C81.5995 26.416 81.5835 26.208 81.5835 25.92V21.312L79.5195 22.272C79.4235 22.304 79.1035 22.432 78.5595 22.656C78.0155 22.848 77.5355 23.184 77.1195 23.664C76.7355 24.144 76.5435 24.704 76.5435 25.344C76.5435 26.112 76.7835 26.72 77.2635 27.168C77.7755 27.584 78.3515 27.792 78.9915 27.792C79.5035 27.792 80.0315 27.616 80.5755 27.264L81.6315 26.544Z" fill="#121212"/>
<path d="M95.2106 13.776C95.2106 14.704 95.5306 15.504 96.1706 16.176C96.8426 16.848 97.8026 17.552 99.0506 18.288C100.267 18.992 101.163 19.552 101.739 19.968C102.347 20.352 102.891 20.912 103.371 21.648C103.851 22.352 104.091 23.216 104.091 24.24C104.091 25.328 103.819 26.352 103.275 27.312C102.731 28.272 101.915 29.056 100.827 29.664C99.7386 30.24 98.4426 30.528 96.9386 30.528C95.1786 30.528 93.5146 30.096 91.9466 29.232C91.7546 29.04 91.6586 28.848 91.6586 28.656L91.5626 23.904C91.5626 23.808 91.6426 23.76 91.8026 23.76C91.9946 23.728 92.1066 23.744 92.1386 23.808C92.6506 25.408 93.4986 26.768 94.6826 27.888C95.8666 29.008 97.0666 29.568 98.2826 29.568C98.9546 29.568 99.4826 29.36 99.8666 28.944C100.283 28.528 100.491 27.92 100.491 27.12C100.491 25.936 100.155 25.008 99.4826 24.336C98.8106 23.632 97.8186 22.912 96.5066 22.176C95.3866 21.568 94.5386 21.072 93.9626 20.688C93.3866 20.304 92.8746 19.76 92.4266 19.056C91.9786 18.352 91.7546 17.488 91.7546 16.464C91.7546 14.576 92.4266 13.2 93.7706 12.336C95.1146 11.44 96.7626 10.992 98.7146 10.992C99.4506 10.992 100.107 11.04 100.683 11.136C101.291 11.232 101.963 11.424 102.699 11.712C102.987 11.808 103.131 11.984 103.131 12.24C103.131 13.04 103.115 13.664 103.083 14.112L103.035 16.512C103.035 16.608 102.939 16.656 102.747 16.656C102.555 16.656 102.459 16.608 102.459 16.512C102.459 15.904 102.203 15.248 101.691 14.544C101.179 13.808 100.507 13.184 99.6746 12.672C98.8746 12.16 98.0426 11.904 97.1786 11.904C95.8666 11.904 95.2106 12.528 95.2106 13.776Z" fill="#121212"/>
<path d="M139.865 6.816C139.865 6.88 139.769 6.928 139.577 6.96C139.417 6.992 139.32 6.96 139.288 6.864C138.776 5.008 137.913 3.632 136.697 2.736C135.481 1.84 133.88 1.392 131.896 1.392H130.456C129.496 1.392 128.792 1.6 128.344 2.016C127.896 2.432 127.673 3.072 127.673 3.936V14.304H131.128C132.984 14.304 134.392 13.984 135.352 13.344C136.344 12.672 136.84 11.76 136.84 10.608C136.84 10.544 136.936 10.512 137.128 10.512C137.32 10.512 137.417 10.544 137.417 10.608L137.368 14.976C137.368 16 137.385 16.768 137.417 17.28L137.465 19.824C137.465 19.92 137.368 19.968 137.176 19.968C136.984 19.968 136.889 19.92 136.889 19.824C136.889 18.544 136.376 17.536 135.352 16.8C134.36 16.032 132.937 15.648 131.081 15.648H127.673V25.92C127.673 26.912 127.801 27.648 128.057 28.128C128.313 28.608 128.793 28.944 129.497 29.136C130.201 29.328 131.305 29.424 132.809 29.424C132.873 29.424 132.904 29.52 132.904 29.712C132.904 29.904 132.873 30 132.809 30C131.497 30 130.472 29.984 129.736 29.952L124.84 29.904L121.241 29.952C120.601 29.984 119.721 30 118.601 30C118.505 30 118.456 29.904 118.456 29.712C118.456 29.52 118.505 29.424 118.601 29.424C119.721 29.424 120.537 29.344 121.049 29.184C121.561 29.024 121.897 28.72 122.057 28.272C122.249 27.792 122.344 27.072 122.344 26.112V3.888C122.344 2.928 122.264 2.224 122.104 1.776C121.944 1.328 121.625 1.024 121.145 0.863997C120.665 0.671998 119.929 0.575998 118.937 0.575998C118.841 0.575998 118.793 0.479999 118.793 0.287999C118.793 0.0959997 118.841 0 118.937 0H139.288C139.608 0 139.768 0.143999 139.768 0.431997L139.865 6.816Z" fill="#277ECE"/>
<path d="M156.399 10.992C157.135 10.992 157.839 11.264 158.511 11.808C159.215 12.32 159.567 12.944 159.567 13.68C159.567 14.352 159.359 14.912 158.943 15.36C158.527 15.776 157.983 15.984 157.311 15.984C156.831 15.984 156.431 15.888 156.111 15.696C155.823 15.504 155.519 15.216 155.199 14.832C154.911 14.512 154.655 14.288 154.431 14.16C154.239 14 153.999 13.92 153.711 13.92C153.391 13.92 153.039 14.048 152.655 14.304C152.303 14.528 151.743 15.024 150.975 15.792V26.112C150.975 27.392 151.279 28.272 151.887 28.752C152.495 29.2 153.615 29.424 155.247 29.424C155.375 29.424 155.439 29.52 155.439 29.712C155.439 29.904 155.375 30 155.247 30C154.127 30 153.247 29.984 152.607 29.952L148.719 29.904L145.887 29.952C145.407 29.984 144.751 30 143.919 30C143.823 30 143.775 29.904 143.775 29.712C143.775 29.52 143.823 29.424 143.919 29.424C144.911 29.424 145.583 29.2 145.935 28.752C146.287 28.272 146.463 27.392 146.463 26.112V17.088C146.463 16.096 146.335 15.376 146.079 14.928C145.855 14.448 145.487 14.208 144.975 14.208C144.431 14.208 143.663 14.432 142.671 14.88H142.575C142.479 14.88 142.399 14.8 142.335 14.64C142.303 14.48 142.319 14.384 142.383 14.352L149.055 11.088C149.247 11.024 149.359 10.992 149.391 10.992C149.743 10.992 150.063 11.328 150.351 12C150.671 12.64 150.863 13.52 150.927 14.64C152.239 13.296 153.311 12.352 154.143 11.808C155.007 11.264 155.759 10.992 156.399 10.992Z" fill="#121212"/>
<path d="M179.784 27.408C179.912 27.408 179.992 27.488 180.024 27.648C180.088 27.776 180.056 27.872 179.928 27.936L174.984 30.288C174.856 30.352 174.696 30.384 174.504 30.384C173.992 30.384 173.496 30.112 173.016 29.568C172.568 29.024 172.248 28.288 172.056 27.36L169.992 28.8C169.256 29.344 168.568 29.744 167.928 30C167.288 30.224 166.568 30.336 165.768 30.336C164.392 30.336 163.352 30.032 162.648 29.424C161.944 28.816 161.592 27.968 161.592 26.88C161.592 26.016 161.8 25.328 162.216 24.816C162.632 24.272 163.144 23.856 163.752 23.568C164.392 23.248 165.272 22.896 166.392 22.512L167.592 22.08L171.912 20.496V17.76C171.912 15.712 171.736 14.224 171.384 13.296C171.064 12.368 170.504 11.904 169.704 11.904C168.008 11.904 167.048 13.216 166.824 15.84C166.728 16.8 166.44 17.488 165.96 17.904C165.512 18.32 164.872 18.528 164.04 18.528C163.24 18.528 162.648 18.368 162.264 18.048C161.912 17.696 161.736 17.248 161.736 16.704C161.736 15.744 162.296 14.832 163.416 13.968C164.536 13.072 165.88 12.352 167.448 11.808C169.048 11.264 170.456 10.992 171.672 10.992C173.08 10.992 174.216 11.44 175.08 12.336C175.976 13.2 176.424 14.528 176.424 16.32V24.816C176.424 25.744 176.584 26.464 176.904 26.976C177.256 27.488 177.736 27.744 178.344 27.744C178.792 27.744 179.256 27.632 179.736 27.408H179.784ZM171.96 26.544C171.928 26.416 171.912 26.208 171.912 25.92V21.312L169.848 22.272C169.752 22.304 169.432 22.432 168.888 22.656C168.344 22.848 167.864 23.184 167.448 23.664C167.064 24.144 166.872 24.704 166.872 25.344C166.872 26.112 167.112 26.72 167.592 27.168C168.104 27.584 168.68 27.792 169.32 27.792C169.832 27.792 170.36 27.616 170.904 27.264L171.96 26.544Z" fill="#121212"/>
<path d="M204.307 29.424C204.403 29.424 204.451 29.52 204.451 29.712C204.451 29.904 204.403 30 204.307 30C203.475 30 202.819 29.984 202.339 29.952L199.459 29.904L196.675 29.952C196.163 29.984 195.491 30 194.659 30C194.563 30 194.515 29.904 194.515 29.712C194.515 29.52 194.563 29.424 194.659 29.424C195.651 29.424 196.323 29.2 196.675 28.752C197.027 28.272 197.203 27.392 197.203 26.112V19.2C197.203 17.472 196.883 16.192 196.243 15.36C195.635 14.528 194.659 14.112 193.315 14.112C192.547 14.112 191.747 14.272 190.915 14.592C190.115 14.912 189.411 15.344 188.803 15.888V26.112C188.803 27.392 188.979 28.272 189.331 28.752C189.715 29.2 190.403 29.424 191.395 29.424C191.491 29.424 191.539 29.52 191.539 29.712C191.539 29.904 191.491 30 191.395 30C190.563 30 189.907 29.984 189.427 29.952L186.547 29.904L183.715 29.952C183.235 29.984 182.579 30 181.747 30C181.651 30 181.603 29.904 181.603 29.712C181.603 29.52 181.651 29.424 181.747 29.424C182.739 29.424 183.411 29.2 183.763 28.752C184.115 28.272 184.291 27.392 184.291 26.112V17.088C184.291 16.096 184.163 15.376 183.907 14.928C183.683 14.448 183.315 14.208 182.803 14.208C182.259 14.208 181.491 14.432 180.499 14.88H180.403C180.307 14.88 180.227 14.8 180.163 14.64C180.131 14.48 180.147 14.384 180.211 14.352L186.883 11.088C187.075 11.024 187.187 10.992 187.219 10.992C187.571 10.992 187.907 11.344 188.227 12.048C188.547 12.72 188.739 13.648 188.803 14.832C191.011 12.208 193.443 10.896 196.099 10.896C197.827 10.896 199.187 11.456 200.179 12.576C201.203 13.664 201.715 15.104 201.715 16.896V26.112C201.715 27.392 201.891 28.272 202.243 28.752C202.627 29.2 203.315 29.424 204.307 29.424Z" fill="#121212"/>
<path d="M216.372 30.576C214.26 30.576 212.468 30.128 210.996 29.232C209.556 28.304 208.468 27.12 207.732 25.68C207.028 24.208 206.676 22.672 206.676 21.072C206.676 19.056 207.236 17.296 208.356 15.792C209.476 14.256 210.9 13.088 212.628 12.288C214.388 11.456 216.18 11.04 218.004 11.04C219.54 11.04 220.916 11.36 222.132 12C223.38 12.64 224.004 13.52 224.004 14.64C224.004 15.248 223.764 15.776 223.284 16.224C222.836 16.64 222.196 16.848 221.364 16.848C220.596 16.848 219.988 16.656 219.54 16.272C219.092 15.856 218.724 15.232 218.436 14.4C218.148 13.504 217.86 12.896 217.572 12.576C217.316 12.224 216.836 12.048 216.132 12.048C214.756 12.048 213.652 12.736 212.82 14.112C212.02 15.456 211.62 17.248 211.62 19.488C211.62 22.144 212.212 24.272 213.396 25.872C214.58 27.44 216.468 28.224 219.06 28.224C219.924 28.224 220.66 28.128 221.268 27.936C221.908 27.744 222.708 27.424 223.668 26.976H223.716C223.812 26.976 223.892 27.024 223.956 27.12C224.052 27.216 224.068 27.296 224.004 27.36C222.82 28.448 221.636 29.264 220.452 29.808C219.268 30.32 217.908 30.576 216.372 30.576Z" fill="#121212"/>
<path d="M236.626 30.624C234.642 30.624 232.898 30.176 231.394 29.28C229.922 28.352 228.786 27.12 227.986 25.584C227.186 24.016 226.786 22.32 226.786 20.496C226.786 18.416 227.314 16.656 228.37 15.216C229.426 13.744 230.77 12.656 232.402 11.952C234.034 11.216 235.714 10.848 237.442 10.848C239.426 10.848 241.154 11.312 242.626 12.24C244.098 13.168 245.218 14.4 245.986 15.936C246.786 17.44 247.186 19.056 247.186 20.784C247.186 22.704 246.706 24.416 245.746 25.92C244.786 27.392 243.49 28.544 241.858 29.376C240.258 30.208 238.514 30.624 236.626 30.624ZM238.066 29.616C239.314 29.616 240.258 29.008 240.898 27.792C241.57 26.544 241.906 24.768 241.906 22.464C241.906 20.224 241.618 18.304 241.042 16.704C240.466 15.104 239.714 13.904 238.786 13.104C237.858 12.272 236.866 11.856 235.81 11.856C233.25 11.856 231.97 14.144 231.97 18.72C231.97 20.864 232.242 22.768 232.786 24.432C233.33 26.064 234.066 27.344 234.994 28.272C235.922 29.168 236.946 29.616 238.066 29.616Z" fill="#121212"/>
<path d="M253.774 30.528C252.878 30.528 252.158 30.272 251.614 29.76C251.102 29.216 250.846 28.496 250.846 27.6C250.846 26.768 251.102 26.096 251.614 25.584C252.158 25.072 252.878 24.816 253.774 24.816C254.67 24.816 255.358 25.072 255.838 25.584C256.35 26.064 256.606 26.736 256.606 27.6C256.606 28.528 256.35 29.248 255.838 29.76C255.358 30.272 254.67 30.528 253.774 30.528Z" fill="#277ECE"/>
</svg>
